<svg xmlns="http://www.w3.org/2000/svg" width="100%" viewBox="0 0 48 48" fill="none" class="icon-1x1-large"><path d="M36.0001 13.5599C36.1458 13.5708 36.2837 13.6298 36.3923 13.7275C36.5009 13.8252 36.574 13.9562 36.6001 14.0999C37.5601 18.0999 41.9601 28.5999 40.9001 34.0999C39.5401 41.1799 36.9001 43.6399 32.3401 44.2799C27.7801 44.9199 12.5201 43.9999 12.5201 43.9999C6.74012 42.9199 3.00012 39.3999 3.00012 34.1399C2.98942 32.0212 3.68728 29.9597 4.98277 28.2832C6.27825 26.6067 8.09699 25.4114 10.1499 24.8872C12.2027 24.3631 14.3719 24.5402 16.3125 25.3905C18.2531 26.2408 19.8538 27.7154 20.8601 29.5799C22.1613 28.9434 23.5916 28.615 25.0401 28.6199C26.1376 28.6204 27.2269 28.8098 28.2601 29.1799C27.5817 27.3424 27.2363 25.3987 27.2401 23.4399C27.2782 21.4576 26.9807 19.483 26.3601 17.5999C25.8283 15.9325 24.7136 14.5125 23.2201 13.5999L25.1001 13.8199C25.6001 11.1399 27.4801 8.31992 29.5201 9.25992C31.5601 10.1999 29.5201 12.6199 29.5201 12.6199C29.8229 13.129 30.1782 13.6049 30.5801 14.0399C32.5401 13.9999 34.6001 13.7399 36.0001 13.5599Z" stroke="currentColor" stroke-width="2" stroke-linecap="round" stroke-linejoin="round"></path><path d="M32.0001 15.3799C31.5164 14.9938 31.0679 14.5654 30.6601 14.0999M25.1801 13.8799C25.1271 14.1505 25.0937 14.4245 25.0801 14.6999" stroke="currentColor" stroke-width="2" stroke-linecap="round" stroke-linejoin="round"></path><path d="M20.8599 29.6201C19.7525 30.2275 18.8849 31.1939 18.3999 32.3601" stroke="currentColor" stroke-width="2" stroke-linecap="round" stroke-linejoin="round"></path><path d="M28.3 29.2197C28.3 29.2197 30.02 29.6197 31.5 32.3597" stroke="currentColor" stroke-width="2" stroke-linecap="round" stroke-linejoin="round"></path><path d="M21.16 6.96023C21.16 6.2423 20.8762 5.55347 20.3704 5.04394C19.8646 4.53441 19.1779 4.24551 18.46 4.24023H16.14C15.7838 4.24022 15.431 4.31072 15.1021 4.44766C14.7732 4.58459 14.4747 4.78526 14.2237 5.0381C13.9727 5.29094 13.7743 5.59096 13.6398 5.92085C13.5053 6.25074 13.4374 6.60399 13.44 6.96023V13.6802C13.4374 14.0365 13.5053 14.3897 13.6398 14.7196C13.7743 15.0495 13.9727 15.3495 14.2237 15.6024C14.4747 15.8552 14.7732 16.0559 15.1021 16.1928C15.431 16.3298 15.7838 16.4002 16.14 16.4002H18.46C19.1779 16.395 19.8646 16.1061 20.3704 15.5965C20.8762 15.087 21.16 14.3982 21.16 13.6802V6.96023Z" stroke="currentColor" stroke-width="2" stroke-linecap="round" stroke-linejoin="round"></path><path d="M37.2601 13.6803V6.96031C37.2601 6.60142 37.3311 6.24608 37.469 5.91477C37.6069 5.58345 37.8091 5.28271 38.0638 5.02987C38.3185 4.77703 38.6207 4.5771 38.953 4.44159C39.2853 4.30608 39.6412 4.23767 40.0001 4.24031H42.3201C43.0345 4.25082 43.7161 4.54202 44.2176 5.05098C44.7191 5.55995 45.0001 6.2458 45.0001 6.96031V13.6803C45.0001 14.3982 44.7163 15.0871 44.2105 15.5966C43.7047 16.1061 43.018 16.395 42.3001 16.4003H39.6801C39.0119 16.3262 38.3948 16.0072 37.9479 15.5049C37.501 15.0026 37.256 14.3526 37.2601 13.6803Z" stroke="currentColor" stroke-width="2" stroke-linecap="round" stroke-linejoin="round"></path><path d="M23.2599 13.6605L21.1599 13.3605V7.36047L21.9999 7.16047L23.3399 6.98047C23.8599 8.30047 26.3199 8.98047 29.3399 8.98047C32.3599 8.98047 34.7399 8.26047 35.3399 6.98047L36.1799 7.10047L37.3799 7.30047V13.3005L35.9999 13.5605C34.6799 13.7405 32.6199 14.0005 30.6999 14.1005C30.2963 13.6619 29.9348 13.1865 29.6199 12.6805C29.6199 12.6805 31.8599 10.3605 29.6199 9.32047C27.3799 8.28047 25.7199 11.2005 25.2199 13.8805L23.2599 13.6605Z" stroke="currentColor" stroke-width="2" stroke-linecap="round" stroke-linejoin="round"></path><path d="M23.3601 6.98035C23.3305 6.59425 23.3305 6.20645 23.3601 5.82035C23.3601 4.16035 26.0601 3.36035 29.3601 3.36035C32.6601 3.36035 35.3601 4.16035 35.3601 5.82035C35.3566 6.20901 35.3231 6.59682 35.2601 6.98035C34.7201 8.30035 32.2601 8.98035 29.2601 8.98035C26.2601 8.98035 23.8801 8.30035 23.3601 6.98035Z" stroke="currentColor" stroke-width="2" stroke-linecap="round" stroke-linejoin="round"></path></svg>