<svg xmlns="http://www.w3.org/2000/svg" width="100%" viewBox="0 0 48 48" fill="none" class="icon-1x1-large"><path d="M24.0001 16.6204L25.7801 14.8604C27.1863 13.4559 29.0925 12.667 31.0801 12.667C33.0676 12.667 34.9738 13.4559 36.3801 14.8604C39.3001 17.7804 39.1801 21.9604 36.3801 25.4604C36.3801 25.4604 28.1401 35.3404 24.0001 35.3404C19.8601 35.3404 11.6201 25.4604 11.6201 25.4604C10.3266 23.9979 9.61255 22.1128 9.61255 20.1604C9.61255 18.2079 10.3266 16.3229 11.6201 14.8604C13.0263 13.4559 14.9325 12.667 16.9201 12.667C18.9076 12.667 20.8138 13.4559 22.2201 14.8604L24.0001 16.6204Z" stroke="currentColor" stroke-width="2" stroke-linecap="round" stroke-linejoin="round"></path><path d="M8.32007 25.2196H18.6001L20.2201 23.0596L23.3001 27.3596" stroke="currentColor" stroke-width="2" stroke-linecap="round" stroke-linejoin="round"></path><path d="M39.68 25.1396H29.08L27.08 20.6396L23.3 27.3596" stroke="currentColor" stroke-width="2" stroke-linecap="round" stroke-linejoin="round"></path><path d="M45 10.56C45 9.56721 44.8045 8.58413 44.4245 7.66691C44.0446 6.74969 43.4877 5.91628 42.7857 5.21427C42.0837 4.51226 41.2503 3.9554 40.3331 3.57547C39.4159 3.19555 38.4328 3 37.44 3H10.56C9.56721 3 8.58413 3.19555 7.66691 3.57547C6.74969 3.9554 5.91628 4.51226 5.21427 5.21427C4.51226 5.91628 3.9554 6.74969 3.57547 7.66691C3.19555 8.58413 3 9.56721 3 10.56V37.44C3 39.445 3.7965 41.368 5.21427 42.7857C5.91628 43.4877 6.74969 44.0446 7.66691 44.4245C8.58413 44.8045 9.56721 45 10.56 45H37.44C39.445 45 41.368 44.2035 42.7857 42.7857C44.2035 41.368 45 39.445 45 37.44V10.56Z" stroke="currentColor" stroke-width="2" stroke-linecap="round" stroke-linejoin="round"></path></svg>