<svg xmlns="http://www.w3.org/2000/svg" width="100%" viewBox="0 0 48 48" fill="none" class="icon-1x1-large">
    <path d="M28.3401 20.9199V25.2799" stroke="currentColor" stroke-width="2" stroke-linecap="round" stroke-linejoin="round">
    </path><path d="M14.66 10.4404H12.94C11.2903 10.4404 9.70824 11.0957 8.54177 12.2622C7.37529 13.4287 6.71997 15.0108 6.71997
    16.6604V38.7804C6.71997 40.4301 7.37529 42.0122 8.54177 43.1786C9.70824 44.3451 11.2903 45.0004 12.94 45.0004H35.06C36.7096
    45.0004 38.2917 44.3451 39.4582 43.1786C40.6246 42.0122 41.28 40.4301 41.28 38.7804V16.6604C41.28 15.0108 40.6246 13.4287
    39.4582 12.2622C38.2917 11.0957 36.7096 10.4404 35.06 10.4404H33.32V12.7404C33.32 12.9243 33.2838 13.1063 33.2134 13.2762C33.143
    13.446 33.0399 13.6004 32.9099 13.7304C32.7799 13.8604 32.6256 13.9635 32.4557 14.0339C32.2859 14.1042 32.1038 14.1404 31.92
    14.1404H16C15.8144 14.1431 15.6302 14.1088 15.4581 14.0397C15.2859 13.9705 15.1292 13.8678 14.9971 13.7375C14.8649 13.6073
    14.76 13.452 14.6884 13.2808C14.6168 13.1097 14.58 12.926 14.58 12.7404L14.66 10.4404Z" 
    stroke="currentColor" stroke-width="2" stroke-linecap="round" stroke-linejoin="round"></path>
    <path d="M19.6599 20.9199V25.2799" stroke="currentColor" stroke-width="2" stroke-linecap="round" stroke-linejoin="round">
    </path><path d="M30.24 23.0996H17.76" stroke="currentColor" stroke-width="2" stroke-linecap="round" stroke-linejoin="round">
    </path><path d="M30.24 32.2197H17.76" stroke="currentColor" stroke-width="2" stroke-linecap="round" stroke-linejoin="round">
    </path><path d="M30.24 38.2998H17.76" stroke="currentColor" stroke-width="2" stroke-linecap="round" stroke-linejoin="round">
    </path><path d="M14.6601 12.74V10C14.6493 9.81346 14.6754 9.62661 14.7369 9.45018C14.7985 9.27375 14.8942 9.1112 15.0187 8.97185C15.1432
    8.8325 15.294 8.71909 15.4624 8.63812C15.6308 8.55715 15.8135 8.51021 16.0001 8.5H19.5401C19.5096 8.18741 19.5096 7.87259 19.5401 7.56C19.5401
    6.35061 20.0205 5.19076 20.8757 4.33559C21.7309 3.48043 22.8907 3 24.1001 3C25.3095 3 26.4693 3.48043 27.3245 4.33559C28.1797 5.19076 28.6601 6.35061 28.6601
    7.56C28.6906 7.87259 28.6906 8.18741 28.6601 8.5H32.0001C32.1856 8.49998 32.3693 8.53685 32.5405 8.60845C32.7117 8.68005 32.8669 8.78497 32.9972 8.9171C33.1274
    9.04922 33.2302 9.20593 33.2993 9.3781C33.3685 9.55027 33.4027 9.73447 33.4001 9.92V12.74C33.4001 12.9239 33.3639 13.1059 33.2935 13.2758C33.2232 13.4456 33.12 13.5999
    32.99 13.7299C32.86 13.86 32.7057 13.9631 32.5358 14.0334C32.366 14.1038 32.1839 14.14 32.0001 14.14H16.0001C15.6393 14.1245 15.2984 13.9702 15.0487 13.7093C14.799 13.4484
    14.6598 13.1011 14.6601 12.74Z" stroke="currentColor" stroke-width="2" stroke-linecap="round" stroke-linejoin="round"></path>
</svg>